<svg width="182" height="52" viewBox="0 0 182 52" fill="none" xmlns="http://www.w3.org/2000/svg">
<path d="M4 22.0958C4 10.1949 12.8976 2.5 22.7318 2.5C32.0978 2.5 40.6207 9.47803 41.3936 20.423H46.8258C47.8793 20.423 48.3945 21.7135 47.6452 22.4543L39.9419 30.3165C39.4736 30.7945 38.7476 30.7945 38.2793 30.3165L30.576 22.4543C30.4154 22.2873 30.3064 22.0759 30.2627 21.8463C30.2187 21.6168 30.2419 21.3791 30.3293 21.1628C30.4164 20.9466 30.5638 20.7612 30.7536 20.6297C30.943 20.4981 31.166 20.4263 31.3953 20.423H36.6871C35.9614 12.6325 30.0608 7.27947 22.7318 7.27947C14.8881 7.27947 8.68296 13.4211 8.68296 22.0958C8.68296 27.6878 13.249 35.096 22.7318 43.938C24.2304 42.5279 25.612 41.1659 26.8764 39.8514C26.4643 39.0219 26.2479 38.1053 26.2441 37.1749C26.2441 35.5906 26.8608 34.071 27.9587 32.9506C29.0563 31.8302 30.5451 31.2007 32.0978 31.2007C33.6504 31.2007 35.1393 31.8302 36.2368 32.9506C37.3347 34.071 37.9515 35.5906 37.9515 37.1749C37.9508 38.0993 37.7392 39.0106 37.3336 39.8365C36.9281 40.6628 36.3398 41.3815 35.6152 41.9356C34.8905 42.4897 34.0493 42.8642 33.1585 43.0292C32.2677 43.1942 31.3513 43.1453 30.4823 42.8865C28.656 44.8461 26.5719 46.8535 24.2772 48.9087C23.3875 49.6971 22.053 49.6971 21.1632 48.9087C9.7368 38.6328 4 29.6952 4 22.0958Z" fill="#DA1212"/>
<path d="M66.9572 20.579H63V18.7126H73.1319V20.579H69.1747V30.5896H66.9572V20.579ZM76.4046 22.8526C77.0187 21.9024 78.0989 21.4274 79.6455 21.4274V23.4464C79.4635 23.4125 79.2986 23.3955 79.1508 23.3955C78.3207 23.3955 77.6725 23.6389 77.2063 24.1251C76.7401 24.6002 76.507 25.29 76.507 26.1951V30.5896H74.3748V21.5292H76.4046V22.8526ZM84.8839 21.4274C86.2257 21.4274 87.2491 21.7497 87.9542 22.3945C88.6706 23.0281 89.0288 23.9894 89.0288 25.2789V30.5896H87.016V29.4867C86.7545 29.8828 86.3792 30.1882 85.8902 30.403C85.4127 30.6066 84.8327 30.7084 84.1504 30.7084C83.4681 30.7084 82.8711 30.5954 82.3594 30.369C81.8477 30.1315 81.4497 29.8091 81.1654 29.4019C80.8925 28.9836 80.7561 28.5138 80.7561 27.9936C80.7561 27.1792 81.0574 26.5286 81.6601 26.0424C82.2741 25.5445 83.235 25.2959 84.5427 25.2959H86.8966V25.1601C86.8966 24.5265 86.7033 24.0403 86.3167 23.701C85.9414 23.3616 85.3785 23.1919 84.628 23.1919C84.1163 23.1919 83.6103 23.2709 83.1099 23.4295C82.6209 23.588 82.2059 23.8086 81.8648 24.0912L81.029 22.5472C81.5066 22.185 82.0808 21.9083 82.7517 21.7158C83.4226 21.5233 84.1334 21.4274 84.8839 21.4274ZM84.5939 29.1644C85.1283 29.1644 85.6003 29.0456 86.0097 28.8081C86.4304 28.5594 86.726 28.2084 86.8966 27.7561V26.7041H84.6963C83.4681 26.7041 82.8541 27.1055 82.8541 27.9088C82.8541 28.2932 83.0076 28.5986 83.3146 28.825C83.6217 29.0514 84.0481 29.1644 84.5939 29.1644ZM100.127 21.5292L96.221 30.5896H94.0206L90.1145 21.5292H92.3319L95.1634 28.2481L98.0802 21.5292H100.127ZM109.773 26.1103C109.773 26.2572 109.761 26.4666 109.739 26.7381H102.592C102.716 27.4056 103.04 27.9369 103.564 28.333C104.098 28.7174 104.758 28.9099 105.543 28.9099C106.543 28.9099 107.368 28.5817 108.016 27.9258L109.159 29.2322C108.749 29.7185 108.232 30.0864 107.606 30.3351C106.981 30.5838 106.276 30.7084 105.491 30.7084C104.49 30.7084 103.609 30.5106 102.848 30.1145C102.085 29.7185 101.494 29.1702 101.074 28.4687C100.664 27.7561 100.46 26.9528 100.46 26.0594C100.46 25.1771 100.658 24.3855 101.057 23.684C101.466 22.9714 102.029 22.4173 102.745 22.0212C103.462 21.6251 104.269 21.4274 105.167 21.4274C106.054 21.4274 106.844 21.6251 107.538 22.0212C108.243 22.4056 108.789 22.9544 109.176 23.667C109.573 24.3685 109.773 25.1829 109.773 26.1103ZM105.167 23.1241C104.485 23.1241 103.905 23.3277 103.427 23.7349C102.961 24.131 102.677 24.6622 102.575 25.3298H107.743C107.652 24.6739 107.373 24.1421 106.907 23.7349C106.441 23.3277 105.861 23.1241 105.167 23.1241ZM111.821 18H113.953V30.5896H111.821V18ZM130.13 24.4136C130.79 24.6283 131.313 24.9905 131.7 25.4995C132.086 25.9973 132.28 26.6193 132.28 27.3659C132.28 28.395 131.881 29.1925 131.086 29.7582C130.289 30.3123 129.129 30.5896 127.606 30.5896H121.67V18.7126H127.265C128.675 18.7126 129.76 18.9899 130.523 19.544C131.284 20.087 131.665 20.8393 131.665 21.8006C131.665 22.3887 131.529 22.9093 131.256 23.3616C130.983 23.8139 130.608 24.1649 130.13 24.4136ZM123.887 20.4433V23.7179H127.026C127.799 23.7179 128.391 23.5822 128.8 23.3107C129.22 23.0281 129.431 22.6209 129.431 22.0891C129.431 21.5461 129.22 21.1389 128.8 20.8674C128.391 20.5848 127.799 20.4433 127.026 20.4433H123.887ZM127.469 28.859C129.186 28.859 130.045 28.2879 130.045 27.1453C130.045 26.0026 129.186 25.4316 127.469 25.4316H123.887V28.859H127.469ZM143.259 21.5292V30.5896H141.23V29.4358C140.889 29.8431 140.462 30.1596 139.95 30.386C139.439 30.6007 138.888 30.7084 138.296 30.7084C137.079 30.7084 136.118 30.3749 135.413 29.7073C134.72 29.0286 134.373 28.0276 134.373 26.7041V21.5292H136.505V26.4157C136.505 27.2301 136.687 27.8409 137.051 28.2481C137.426 28.6442 137.955 28.842 138.637 28.842C139.399 28.842 140.002 28.6103 140.445 28.1463C140.9 27.6713 141.127 26.9926 141.127 26.1103V21.5292H143.259ZM154.972 18V30.5896H152.926V29.4189C152.573 29.8489 152.135 30.1713 151.612 30.386C151.1 30.6007 150.532 30.7084 149.906 30.7084C149.031 30.7084 148.24 30.5159 147.535 30.1315C146.841 29.7471 146.296 29.2041 145.898 28.5026C145.5 27.79 145.301 26.9756 145.301 26.0594C145.301 25.1432 145.5 24.3346 145.898 23.6331C146.296 22.9316 146.841 22.3887 147.535 22.0042C148.24 21.6198 149.031 21.4274 149.906 21.4274C150.509 21.4274 151.06 21.5292 151.561 21.7328C152.061 21.9364 152.487 22.2418 152.84 22.649V18H154.972ZM150.162 28.8929C150.674 28.8929 151.135 28.78 151.544 28.5536C151.953 28.316 152.277 27.9825 152.516 27.5525C152.755 27.1225 152.874 26.6251 152.874 26.0594C152.874 25.4936 152.755 24.9963 152.516 24.5663C152.277 24.1363 151.953 23.8086 151.544 23.5822C151.135 23.3446 150.674 23.2259 150.162 23.2259C149.651 23.2259 149.19 23.3446 148.781 23.5822C148.371 23.8086 148.047 24.1363 147.808 24.5663C147.57 24.9963 147.45 25.4936 147.45 26.0594C147.45 26.6251 147.57 27.1225 147.808 27.5525C148.047 27.9825 148.371 28.316 148.781 28.5536C149.19 28.78 149.651 28.8929 150.162 28.8929ZM166.682 18V30.5896H164.635V29.4189C164.283 29.8489 163.845 30.1713 163.322 30.386C162.81 30.6007 162.242 30.7084 161.616 30.7084C160.741 30.7084 159.95 30.5159 159.245 30.1315C158.552 29.7471 158.006 29.2041 157.608 28.5026C157.21 27.79 157.011 26.9756 157.011 26.0594C157.011 25.1432 157.21 24.3346 157.608 23.6331C158.006 22.9316 158.552 22.3887 159.245 22.0042C159.95 21.6198 160.741 21.4274 161.616 21.4274C162.219 21.4274 162.771 21.5292 163.271 21.7328C163.771 21.9364 164.198 22.2418 164.55 22.649V18H166.682ZM161.872 28.8929C162.384 28.8929 162.844 28.78 163.254 28.5536C163.663 28.316 163.987 27.9825 164.226 27.5525C164.465 27.1225 164.584 26.6251 164.584 26.0594C164.584 25.4936 164.465 24.9963 164.226 24.5663C163.987 24.1363 163.663 23.8086 163.254 23.5822C162.844 23.3446 162.384 23.2259 161.872 23.2259C161.36 23.2259 160.9 23.3446 160.49 23.5822C160.081 23.8086 159.757 24.1363 159.518 24.5663C159.279 24.9963 159.16 25.4936 159.16 26.0594C159.16 26.6251 159.279 27.1225 159.518 27.5525C159.757 27.9825 160.081 28.316 160.49 28.5536C160.9 28.78 161.36 28.8929 161.872 28.8929ZM178 21.5292L173.736 31.3192C173.338 32.3033 172.855 32.9931 172.286 33.3892C171.717 33.7964 171.03 34 170.222 34C169.767 34 169.318 33.9263 168.874 33.7794C168.431 33.6326 168.067 33.4289 167.783 33.1686L168.636 31.6076C168.84 31.8001 169.079 31.9528 169.352 32.0657C169.636 32.1787 169.921 32.2354 170.205 32.2354C170.58 32.2354 170.887 32.1394 171.126 31.947C171.376 31.7545 171.604 31.4321 171.808 30.9798L171.962 30.6235L167.987 21.5292H170.205L173.071 28.2312L175.953 21.5292H178Z" fill="#041562"/>
</svg>
