<svg width="605" height="592" viewBox="0 0 605 592" fill="none" xmlns="http://www.w3.org/2000/svg">
<g filter="url(#filter0_dddddd_5_504)">
<path d="M191.549 136.343C191.549 65.6697 244.238 19.9731 302.473 19.9731C357.935 19.9731 408.405 61.4122 412.982 126.409H445.15C451.389 126.409 454.439 134.073 450.002 138.472L404.386 185.162C401.612 188 397.313 188 394.54 185.162L348.923 138.472C347.972 137.48 347.327 136.225 347.069 134.861C346.808 133.498 346.945 132.087 347.463 130.802C347.979 129.518 348.852 128.417 349.975 127.636C351.097 126.855 352.418 126.429 353.775 126.409H385.111C380.814 80.145 345.873 48.3561 302.473 48.3561C256.024 48.3561 219.28 84.8281 219.28 136.343C219.28 169.551 246.319 213.545 302.473 266.053C311.347 257.679 319.529 249.591 327.016 241.785C324.576 236.859 323.294 231.415 323.271 225.89C323.271 216.482 326.923 207.458 333.425 200.804C339.924 194.151 348.741 190.413 357.935 190.413C367.129 190.413 375.946 194.151 382.445 200.804C388.947 207.458 392.599 216.482 392.599 225.89C392.595 231.38 391.342 236.791 388.94 241.696C386.539 246.603 383.055 250.871 378.764 254.162C374.473 257.452 369.492 259.676 364.217 260.656C358.942 261.636 353.514 261.346 348.369 259.809C337.554 271.446 325.212 283.367 311.624 295.571C306.355 300.254 298.453 300.254 293.184 295.571C225.52 234.548 191.549 181.472 191.549 136.343Z" fill="#DA1212"/>
<path d="M96.1375 358.06H80.8875V350.659H119.933V358.06H104.683V397.754H96.1375V358.06ZM132.545 367.075C134.911 363.308 139.074 361.424 145.034 361.424V369.43C144.333 369.295 143.697 369.228 143.128 369.228C139.929 369.228 137.431 370.193 135.634 372.121C133.838 374.005 132.939 376.74 132.939 380.329V397.754H124.723V361.827H132.545V367.075ZM165.221 361.424C170.392 361.424 174.336 362.702 177.053 365.259C179.814 367.771 181.194 371.583 181.194 376.696V397.754H173.438V393.381C172.43 394.951 170.984 396.162 169.099 397.014C167.259 397.821 165.024 398.225 162.395 398.225C159.765 398.225 157.465 397.777 155.493 396.879C153.521 395.937 151.987 394.659 150.891 393.044C149.84 391.386 149.314 389.523 149.314 387.46C149.314 384.231 150.475 381.651 152.798 379.723C155.164 377.749 158.867 376.763 163.907 376.763H172.978V376.225C172.978 373.713 172.233 371.785 170.743 370.439C169.297 369.093 167.128 368.421 164.235 368.421C162.263 368.421 160.313 368.734 158.385 369.363C156.501 369.991 154.901 370.866 153.587 371.986L150.366 365.864C152.206 364.428 154.419 363.331 157.005 362.568C159.59 361.804 162.329 361.424 165.221 361.424ZM164.104 392.103C166.163 392.103 167.982 391.632 169.56 390.69C171.181 389.704 172.32 388.312 172.978 386.519V382.347H164.498C159.765 382.347 157.399 383.939 157.399 387.124C157.399 388.648 157.991 389.859 159.174 390.757C160.357 391.655 162 392.103 164.104 392.103ZM223.964 361.827L208.911 397.754H200.431L185.378 361.827H193.924L204.836 388.47L216.076 361.827H223.964ZM261.135 379.993C261.135 380.575 261.09 381.405 261.004 382.482H233.462C233.942 385.129 235.191 387.235 237.208 388.806C239.267 390.33 241.81 391.093 244.833 391.093C248.689 391.093 251.867 389.792 254.365 387.191L258.769 392.372C257.191 394.3 255.197 395.759 252.787 396.745C250.375 397.731 247.66 398.225 244.636 398.225C240.779 398.225 237.383 397.441 234.448 395.87C231.51 394.3 229.232 392.126 227.611 389.344C226.034 386.518 225.245 383.333 225.245 379.791C225.245 376.292 226.011 373.153 227.546 370.372C229.123 367.546 231.292 365.349 234.053 363.779C236.814 362.208 239.924 361.424 243.387 361.424C246.805 361.424 249.85 362.208 252.524 363.779C255.24 365.303 257.343 367.479 258.834 370.304C260.367 373.086 261.135 376.315 261.135 379.993ZM243.387 368.152C240.758 368.152 238.523 368.959 236.683 370.574C234.885 372.144 233.79 374.251 233.396 376.898H253.313C252.962 374.297 251.887 372.188 250.092 370.574C248.295 368.959 246.06 368.152 243.387 368.152ZM269.027 347.834H277.244V397.754H269.027V347.834ZM339.587 373.265C342.128 374.116 344.143 375.552 345.635 377.571C347.124 379.545 347.87 382.011 347.87 384.971C347.87 389.052 346.335 392.214 343.268 394.457C340.199 396.654 335.73 397.754 329.859 397.754H306.984V350.659H328.544C333.977 350.659 338.162 351.759 341.099 353.956C344.035 356.109 345.503 359.092 345.503 362.904C345.503 365.236 344.977 367.3 343.926 369.093C342.874 370.887 341.428 372.279 339.587 373.265ZM315.529 357.522V370.506H327.624C330.602 370.506 332.883 369.968 334.46 368.892C336.081 367.771 336.892 366.156 336.892 364.048C336.892 361.895 336.081 360.28 334.46 359.204C332.883 358.083 330.602 357.522 327.624 357.522H315.529ZM329.333 390.892C335.949 390.892 339.259 388.627 339.259 384.096C339.259 379.566 335.949 377.301 329.333 377.301H315.529V390.892H329.333ZM390.183 361.827V397.754H382.361V393.179C381.046 394.794 379.403 396.049 377.431 396.947C375.459 397.798 373.335 398.225 371.055 398.225C366.367 398.225 362.664 396.902 359.946 394.255C357.274 391.564 355.936 387.595 355.936 382.347V361.827H364.153V381.204C364.153 384.433 364.855 386.855 366.256 388.47C367.702 390.04 369.74 390.824 372.369 390.824C375.307 390.824 377.628 389.906 379.337 388.066C381.091 386.182 381.966 383.491 381.966 379.993V361.827H390.183ZM435.321 347.834V397.754H427.433V393.112C426.073 394.817 424.387 396.095 422.372 396.947C420.4 397.798 418.208 398.225 415.798 398.225C412.423 398.225 409.377 397.462 406.661 395.937C403.987 394.413 401.884 392.26 400.351 389.479C398.817 386.653 398.051 383.424 398.051 379.791C398.051 376.158 398.817 372.951 400.351 370.17C401.884 367.388 403.987 365.236 406.661 363.711C409.377 362.187 412.423 361.424 415.798 361.424C418.12 361.424 420.246 361.827 422.174 362.635C424.101 363.442 425.745 364.653 427.104 366.268V347.834H435.321ZM416.784 391.026C418.756 391.026 420.531 390.578 422.109 389.681C423.686 388.739 424.935 387.416 425.855 385.711C426.776 384.006 427.236 382.034 427.236 379.791C427.236 377.547 426.776 375.575 425.855 373.87C424.935 372.165 423.686 370.866 422.109 369.968C420.531 369.026 418.756 368.555 416.784 368.555C414.812 368.555 413.038 369.026 411.46 369.968C409.882 370.866 408.633 372.165 407.713 373.87C406.793 375.575 406.333 377.547 406.333 379.791C406.333 382.034 406.793 384.006 407.713 385.711C408.633 387.416 409.882 388.739 411.46 389.681C413.038 390.578 414.812 391.026 416.784 391.026ZM480.447 347.834V397.754H472.559V393.112C471.201 394.817 469.514 396.095 467.497 396.947C465.525 397.798 463.336 398.225 460.924 398.225C457.551 398.225 454.505 397.462 451.787 395.937C449.115 394.413 447.011 392.26 445.477 389.479C443.944 386.653 443.176 383.424 443.176 379.791C443.176 376.158 443.944 372.951 445.477 370.17C447.011 367.388 449.115 365.236 451.787 363.711C454.505 362.187 457.551 361.424 460.924 361.424C463.247 361.424 465.373 361.827 467.3 362.635C469.229 363.442 470.872 364.653 472.23 366.268V347.834H480.447ZM461.91 391.026C463.882 391.026 465.657 390.578 467.234 389.681C468.812 388.739 470.061 387.416 470.981 385.711C471.901 384.006 472.361 382.034 472.361 379.791C472.361 377.547 471.901 375.575 470.981 373.87C470.061 372.165 468.812 370.866 467.234 369.968C465.657 369.026 463.882 368.555 461.91 368.555C459.938 368.555 458.163 369.026 456.586 369.968C455.008 370.866 453.759 372.165 452.839 373.87C451.919 375.575 451.458 377.547 451.458 379.791C451.458 382.034 451.919 384.006 452.839 385.711C453.759 387.416 455.008 388.739 456.586 389.681C458.163 390.578 459.938 391.026 461.91 391.026ZM524.062 361.827L507.629 400.647C506.095 404.549 504.234 407.284 502.042 408.855C499.85 410.469 497.2 411.277 494.088 411.277C492.336 411.277 490.604 410.985 488.895 410.402C487.186 409.82 485.783 409.012 484.688 407.98L487.975 401.791C488.764 402.554 489.684 403.159 490.736 403.607C491.831 404.055 492.928 404.28 494.022 404.28C495.469 404.28 496.652 403.899 497.572 403.136C498.535 402.373 499.413 401.095 500.201 399.301L500.793 397.888L485.477 361.827H494.022L505.066 388.402L516.174 361.827H524.062Z" fill="#041562"/>
</g>
<defs>
<filter id="filter0_dddddd_5_504" x="-61" y="0" width="729" height="611" filterUnits="userSpaceOnUse" color-interpolation-filters="sRGB">
<feFlood flood-opacity="0" result="BackgroundImageFix"/>
<feColorMatrix in="SourceAlpha" type="matrix" values="0 0 0 0 0 0 0 0 0 0 0 0 0 0 0 0 0 0 127 0" result="hardAlpha"/>
<feOffset dy="2.76726"/>
<feGaussianBlur stdDeviation="1.1069"/>
<feColorMatrix type="matrix" values="0 0 0 0 0.0156863 0 0 0 0 0.0823529 0 0 0 0 0.384314 0 0 0 0.0477948 0"/>
<feBlend mode="normal" in2="BackgroundImageFix" result="effect1_dropShadow_5_504"/>
<feColorMatrix in="SourceAlpha" type="matrix" values="0 0 0 0 0 0 0 0 0 0 0 0 0 0 0 0 0 0 127 0" result="hardAlpha"/>
<feOffset dy="6.6501"/>
<feGaussianBlur stdDeviation="2.66004"/>
<feColorMatrix type="matrix" values="0 0 0 0 0.0156863 0 0 0 0 0.0823529 0 0 0 0 0.384314 0 0 0 0.0686618 0"/>
<feBlend mode="normal" in2="effect1_dropShadow_5_504" result="effect2_dropShadow_5_504"/>
<feColorMatrix in="SourceAlpha" type="matrix" values="0 0 0 0 0 0 0 0 0 0 0 0 0 0 0 0 0 0 127 0" result="hardAlpha"/>
<feOffset dy="12.5216"/>
<feGaussianBlur stdDeviation="5.00862"/>
<feColorMatrix type="matrix" values="0 0 0 0 0.0156863 0 0 0 0 0.0823529 0 0 0 0 0.384314 0 0 0 0.085 0"/>
<feBlend mode="normal" in2="effect2_dropShadow_5_504" result="effect3_dropShadow_5_504"/>
<feColorMatrix in="SourceAlpha" type="matrix" values="0 0 0 0 0 0 0 0 0 0 0 0 0 0 0 0 0 0 127 0" result="hardAlpha"/>
<feOffset dy="22.3363"/>
<feGaussianBlur stdDeviation="8.93452"/>
<feColorMatrix type="matrix" values="0 0 0 0 0.0156863 0 0 0 0 0.0823529 0 0 0 0 0.384314 0 0 0 0.101338 0"/>
<feBlend mode="normal" in2="effect3_dropShadow_5_504" result="effect4_dropShadow_5_504"/>
<feColorMatrix in="SourceAlpha" type="matrix" values="0 0 0 0 0 0 0 0 0 0 0 0 0 0 0 0 0 0 127 0" result="hardAlpha"/>
<feOffset dy="41.7776"/>
<feGaussianBlur stdDeviation="16.711"/>
<feColorMatrix type="matrix" values="0 0 0 0 0.0156863 0 0 0 0 0.0823529 0 0 0 0 0.384314 0 0 0 0.122205 0"/>
<feBlend mode="normal" in2="effect4_dropShadow_5_504" result="effect5_dropShadow_5_504"/>
<feColorMatrix in="SourceAlpha" type="matrix" values="0 0 0 0 0 0 0 0 0 0 0 0 0 0 0 0 0 0 127 0" result="hardAlpha"/>
<feOffset dy="100"/>
<feGaussianBlur stdDeviation="40"/>
<feColorMatrix type="matrix" values="0 0 0 0 0.0156863 0 0 0 0 0.0823529 0 0 0 0 0.384314 0 0 0 0.17 0"/>
<feBlend mode="normal" in2="effect5_dropShadow_5_504" result="effect6_dropShadow_5_504"/>
<feBlend mode="normal" in="SourceGraphic" in2="effect6_dropShadow_5_504" result="shape"/>
</filter>
</defs>
</svg>
