<svg width="264" height="227" viewBox="0 0 264 227" fill="none" xmlns="http://www.w3.org/2000/svg">
<path d="M66.1949 67.7691C66.1949 26.9391 97.4009 0.539062 131.892 0.539062C164.74 0.539062 194.632 24.4795 197.343 62.0299H216.395C220.09 62.0299 221.896 66.4573 219.268 68.9989L192.251 95.9729C190.609 97.6126 188.062 97.6126 186.42 95.9729L159.403 68.9989C158.84 68.4259 158.458 67.7007 158.304 66.913C158.15 66.1254 158.231 65.31 158.538 64.568C158.843 63.8261 159.36 63.19 160.026 62.7389C160.69 62.2877 161.472 62.0412 162.276 62.0299H180.836C178.291 35.3019 157.596 16.9366 131.892 16.9366C104.382 16.9366 82.6191 38.0075 82.6191 67.7691C82.6191 86.9542 98.6333 112.37 131.892 142.706C137.147 137.868 141.993 133.195 146.428 128.685C144.982 125.84 144.223 122.695 144.21 119.503C144.21 114.067 146.373 108.854 150.224 105.01C154.073 101.166 159.295 99.0064 164.74 99.0064C170.186 99.0064 175.407 101.166 179.257 105.01C183.107 108.854 185.27 114.067 185.27 119.503C185.268 122.674 184.526 125.801 183.104 128.634C181.681 131.469 179.618 133.935 177.076 135.836C174.535 137.737 171.585 139.022 168.46 139.588C165.336 140.154 162.122 139.986 159.074 139.098C152.669 145.821 145.36 152.708 137.312 159.759C134.191 162.464 129.511 162.464 126.39 159.759C86.3152 124.505 66.1949 93.8412 66.1949 67.7691Z" fill="#DA1212"/>
<path d="M9.68602 195.634H0.653931V191.358H23.7792V195.634H14.7471V218.566H9.68602V195.634ZM31.2489 200.842C32.6504 198.665 35.116 197.577 38.6459 197.577V202.202C38.2305 202.125 37.8542 202.086 37.5169 202.086C35.6221 202.086 34.1427 202.643 33.0787 203.757C32.0145 204.845 31.4825 206.426 31.4825 208.499V218.566H26.6161V197.81H31.2489V200.842ZM50.6021 197.577C53.6646 197.577 56.0005 198.315 57.6097 199.792C59.2448 201.244 60.0624 203.446 60.0624 206.4V218.566H55.4685V216.039C54.8715 216.947 54.015 217.646 52.899 218.138C51.8089 218.605 50.4853 218.838 48.928 218.838C47.3708 218.838 46.0082 218.579 44.8402 218.061C43.6723 217.516 42.7638 216.778 42.115 215.845C41.4921 214.887 41.1807 213.811 41.1807 212.619C41.1807 210.753 41.8684 209.263 43.244 208.149C44.6456 207.009 46.8386 206.439 49.8234 206.439H55.196V206.128C55.196 204.677 54.7547 203.563 53.8723 202.785C53.0158 202.008 51.7311 201.619 50.0181 201.619C48.8502 201.619 47.6951 201.8 46.5532 202.163C45.4371 202.527 44.4898 203.032 43.7112 203.679L41.8036 200.142C42.8937 199.313 44.2043 198.679 45.7356 198.238C47.2669 197.797 48.8891 197.577 50.6021 197.577ZM49.9402 215.301C51.16 215.301 52.2372 215.029 53.1716 214.485C54.1318 213.915 54.8067 213.111 55.196 212.075V209.665H50.1738C47.3708 209.665 45.9692 210.584 45.9692 212.425C45.9692 213.305 46.3196 214.005 47.0204 214.524C47.7212 215.042 48.6944 215.301 49.9402 215.301ZM85.3934 197.81L76.4781 218.566H71.4559L62.5405 197.81H67.6016L74.0643 213.202L80.7216 197.81H85.3934ZM107.409 208.305C107.409 208.641 107.382 209.121 107.331 209.743H91.0186C91.3033 211.272 92.043 212.489 93.2377 213.396C94.4567 214.277 95.9629 214.718 97.7537 214.718C100.037 214.718 101.919 213.966 103.399 212.464L106.007 215.456C105.073 216.57 103.892 217.413 102.464 217.983C101.036 218.552 99.4278 218.838 97.6369 218.838C95.3521 218.838 93.3411 218.385 91.6026 217.478C89.8628 216.57 88.5136 215.314 87.5537 213.707C86.6193 212.075 86.1522 210.235 86.1522 208.188C86.1522 206.167 86.606 204.353 87.5148 202.746C88.4491 201.114 89.7339 199.845 91.369 198.937C93.0041 198.03 94.846 197.577 96.8972 197.577C98.9217 197.577 100.725 198.03 102.309 198.937C103.917 199.818 105.163 201.075 106.046 202.708C106.954 204.315 107.409 206.18 107.409 208.305ZM96.8972 201.464C95.34 201.464 94.0163 201.93 92.9262 202.863C91.8617 203.77 91.2133 204.987 90.9797 206.517H102.776C102.568 205.014 101.932 203.796 100.868 202.863C99.8037 201.93 98.48 201.464 96.8972 201.464ZM112.083 189.726H116.949V218.566H112.083V189.726ZM153.873 204.418C155.378 204.91 156.572 205.739 157.455 206.905C158.337 208.046 158.779 209.471 158.779 211.181C158.779 213.538 157.87 215.365 156.054 216.661C154.236 217.931 151.589 218.566 148.112 218.566H134.563V191.358H147.333C150.551 191.358 153.029 191.993 154.769 193.263C156.507 194.506 157.377 196.23 157.377 198.432C157.377 199.779 157.066 200.972 156.443 202.008C155.82 203.044 154.963 203.848 153.873 204.418ZM139.624 195.323V202.824H146.788C148.552 202.824 149.902 202.513 150.837 201.891C151.797 201.244 152.277 200.311 152.277 199.093C152.277 197.849 151.797 196.916 150.837 196.294C149.902 195.647 148.552 195.323 146.788 195.323H139.624ZM147.8 214.601C151.719 214.601 153.679 213.293 153.679 210.676C153.679 208.058 151.719 206.75 147.8 206.75H139.624V214.601H147.8ZM183.84 197.81V218.566H179.207V215.923C178.428 216.856 177.455 217.581 176.287 218.099C175.119 218.591 173.861 218.838 172.511 218.838C169.734 218.838 167.541 218.074 165.931 216.545C164.348 214.99 163.556 212.697 163.556 209.665V197.81H168.423V209.004C168.423 210.87 168.839 212.269 169.669 213.202C170.525 214.109 171.732 214.562 173.289 214.562C175.029 214.562 176.404 214.032 177.416 212.969C178.455 211.881 178.973 210.326 178.973 208.305V197.81H183.84ZM210.573 189.726V218.566H205.902V215.884C205.096 216.869 204.097 217.608 202.904 218.099C201.736 218.591 200.438 218.838 199.011 218.838C197.012 218.838 195.208 218.397 193.599 217.516C192.015 216.636 190.769 215.392 189.862 213.785C188.953 212.153 188.499 210.287 188.499 208.188C188.499 206.089 188.953 204.237 189.862 202.63C190.769 201.023 192.015 199.779 193.599 198.899C195.208 198.018 197.012 197.577 199.011 197.577C200.385 197.577 201.645 197.81 202.787 198.277C203.928 198.743 204.901 199.443 205.707 200.376V189.726H210.573ZM199.595 214.679C200.763 214.679 201.814 214.42 202.748 213.902C203.682 213.358 204.422 212.594 204.967 211.608C205.512 210.623 205.785 209.484 205.785 208.188C205.785 206.892 205.512 205.753 204.967 204.768C204.422 203.783 203.682 203.032 202.748 202.513C201.814 201.969 200.763 201.697 199.595 201.697C198.427 201.697 197.376 201.969 196.441 202.513C195.507 203.032 194.767 203.783 194.222 204.768C193.677 205.753 193.405 206.892 193.405 208.188C193.405 209.484 193.677 210.623 194.222 211.608C194.767 212.594 195.507 213.358 196.441 213.902C197.376 214.42 198.427 214.679 199.595 214.679ZM237.3 189.726V218.566H232.628V215.884C231.824 216.869 230.825 217.608 229.63 218.099C228.462 218.591 227.165 218.838 225.737 218.838C223.739 218.838 221.935 218.397 220.326 217.516C218.743 216.636 217.497 215.392 216.588 213.785C215.681 212.153 215.226 210.287 215.226 208.188C215.226 206.089 215.681 204.237 216.588 202.63C217.497 201.023 218.743 199.779 220.326 198.899C221.935 198.018 223.739 197.577 225.737 197.577C227.113 197.577 228.372 197.81 229.513 198.277C230.656 198.743 231.629 199.443 232.433 200.376V189.726H237.3ZM226.321 214.679C227.489 214.679 228.54 214.42 229.474 213.902C230.409 213.358 231.149 212.594 231.694 211.608C232.239 210.623 232.511 209.484 232.511 208.188C232.511 206.892 232.239 205.753 231.694 204.768C231.149 203.783 230.409 203.032 229.474 202.513C228.54 201.969 227.489 201.697 226.321 201.697C225.153 201.697 224.102 201.969 223.168 202.513C222.233 203.032 221.494 203.783 220.949 204.768C220.403 205.753 220.131 206.892 220.131 208.188C220.131 209.484 220.403 210.623 220.949 211.608C221.494 212.594 222.233 213.358 223.168 213.902C224.102 214.42 225.153 214.679 226.321 214.679ZM263.132 197.81L253.399 220.237C252.49 222.492 251.388 224.072 250.09 224.979C248.792 225.912 247.222 226.378 245.379 226.378C244.341 226.378 243.316 226.21 242.304 225.873C241.291 225.537 240.46 225.07 239.812 224.474L241.759 220.898C242.226 221.339 242.771 221.689 243.394 221.947C244.042 222.206 244.692 222.336 245.34 222.336C246.197 222.336 246.898 222.116 247.443 221.675C248.013 221.234 248.533 220.496 249 219.46L249.35 218.644L240.279 197.81H245.34L251.881 213.163L258.46 197.81H263.132Z" fill="white"/>
</svg>
