<svg width="445" height="393" viewBox="0 0 445 393" fill="none" xmlns="http://www.w3.org/2000/svg">
<path d="M111.549 117.343C111.549 46.6697 164.238 0.973145 222.473 0.973145C277.935 0.973145 328.405 42.4122 332.982 107.409H365.15C371.389 107.409 374.439 115.073 370.002 119.472L324.386 166.162C321.612 169 317.313 169 314.54 166.162L268.923 119.472C267.972 118.48 267.327 117.225 267.069 115.861C266.808 114.498 266.945 113.087 267.463 111.802C267.978 110.518 268.852 109.417 269.975 108.636C271.097 107.855 272.418 107.429 273.775 107.409H305.111C300.814 61.145 265.873 29.3561 222.473 29.3561C176.024 29.3561 139.28 65.8281 139.28 117.343C139.28 150.551 166.319 194.545 222.473 247.053C231.347 238.679 239.529 230.591 247.016 222.785C244.576 217.859 243.294 212.415 243.271 206.89C243.271 197.482 246.923 188.458 253.425 181.804C259.924 175.151 268.741 171.413 277.935 171.413C287.129 171.413 295.946 175.151 302.445 181.804C308.947 188.458 312.599 197.482 312.599 206.89C312.595 212.38 311.342 217.791 308.94 222.696C306.539 227.603 303.055 231.871 298.764 235.162C294.473 238.452 289.492 240.676 284.217 241.656C278.942 242.636 273.514 242.346 268.369 240.809C257.554 252.446 245.212 264.367 231.624 276.571C226.355 281.254 218.453 281.254 213.184 276.571C145.52 215.548 111.549 162.472 111.549 117.343Z" fill="#DA1212"/>
<path d="M16.1375 339.06H0.887451V331.659H39.9328V339.06H24.6827V378.754H16.1375V339.06ZM52.5448 348.075C54.9112 344.308 59.0742 342.424 65.0341 342.424V350.43C64.3328 350.295 63.6974 350.228 63.1278 350.228C59.9287 350.228 57.4308 351.193 55.6343 353.121C53.8375 355.005 52.9392 357.74 52.9392 361.329V378.754H44.7226V342.827H52.5448V348.075ZM85.2213 342.424C90.3922 342.424 94.3361 343.702 97.0532 346.259C99.814 348.771 101.194 352.583 101.194 357.696V378.754H93.4379V374.381C92.4299 375.951 90.9838 377.162 89.0995 378.014C87.259 378.821 85.0241 379.225 82.3947 379.225C79.7654 379.225 77.4648 378.777 75.4928 377.879C73.5208 376.937 71.987 375.659 70.8915 374.044C69.8398 372.386 69.3139 370.523 69.3139 368.46C69.3139 365.231 70.4751 362.651 72.7978 360.723C75.1641 358.749 78.8669 357.763 83.9066 357.763H92.9777V357.225C92.9777 354.713 92.2327 352.785 90.7428 351.439C89.2967 350.093 87.1275 349.421 84.2353 349.421C82.2633 349.421 80.3131 349.734 78.385 350.363C76.5006 350.991 74.9012 351.866 73.5866 352.986L70.3656 346.864C72.2062 345.428 74.4191 344.331 77.0046 343.568C79.59 342.804 82.329 342.424 85.2213 342.424ZM84.1038 373.103C86.1633 373.103 87.982 372.632 89.5596 371.69C91.181 370.704 92.3204 369.312 92.9777 367.519V363.347H84.4982C79.7654 363.347 77.399 364.939 77.399 368.124C77.399 369.648 77.9907 370.859 79.1738 371.757C80.357 372.655 82.0003 373.103 84.1038 373.103ZM143.964 342.827L128.911 378.754H120.431L105.378 342.827H113.924L124.836 369.47L136.076 342.827H143.964ZM181.135 360.993C181.135 361.575 181.09 362.405 181.004 363.482H153.462C153.942 366.129 155.191 368.235 157.208 369.806C159.267 371.33 161.81 372.093 164.833 372.093C168.689 372.093 171.867 370.792 174.365 368.191L178.769 373.372C177.191 375.3 175.197 376.759 172.787 377.745C170.375 378.731 167.66 379.225 164.636 379.225C160.779 379.225 157.383 378.441 154.448 376.87C151.51 375.3 149.232 373.126 147.611 370.344C146.034 367.518 145.245 364.333 145.245 360.791C145.245 357.292 146.011 354.153 147.546 351.372C149.123 348.546 151.292 346.349 154.053 344.779C156.814 343.208 159.924 342.424 163.387 342.424C166.805 342.424 169.85 343.208 172.524 344.779C175.24 346.303 177.343 348.479 178.834 351.304C180.367 354.086 181.135 357.315 181.135 360.993ZM163.387 349.152C160.758 349.152 158.523 349.959 156.683 351.574C154.885 353.144 153.79 355.251 153.396 357.898H173.313C172.962 355.297 171.887 353.188 170.092 351.574C168.295 349.959 166.06 349.152 163.387 349.152ZM189.027 328.834H197.244V378.754H189.027V328.834ZM259.587 354.265C262.128 355.116 264.143 356.552 265.635 358.571C267.124 360.545 267.87 363.011 267.87 365.971C267.87 370.052 266.335 373.214 263.268 375.457C260.199 377.654 255.73 378.754 249.859 378.754H226.984V331.659H248.544C253.977 331.659 258.162 332.759 261.099 334.956C264.035 337.109 265.503 340.092 265.503 343.904C265.503 346.235 264.977 348.3 263.926 350.093C262.874 351.887 261.428 353.279 259.587 354.265ZM235.529 338.522V351.506H247.624C250.602 351.506 252.883 350.968 254.46 349.892C256.081 348.771 256.892 347.156 256.892 345.048C256.892 342.895 256.081 341.28 254.46 340.204C252.883 339.083 250.602 338.522 247.624 338.522H235.529ZM249.333 371.892C255.949 371.892 259.259 369.627 259.259 365.096C259.259 360.566 255.949 358.301 249.333 358.301H235.529V371.892H249.333ZM310.183 342.827V378.754H302.361V374.179C301.046 375.794 299.403 377.049 297.431 377.947C295.459 378.798 293.335 379.225 291.055 379.225C286.367 379.225 282.664 377.902 279.946 375.255C277.274 372.564 275.936 368.595 275.936 363.347V342.827H284.153V362.204C284.153 365.433 284.855 367.855 286.256 369.47C287.702 371.04 289.74 371.824 292.369 371.824C295.307 371.824 297.628 370.906 299.337 369.066C301.091 367.182 301.966 364.491 301.966 360.993V342.827H310.183ZM355.321 328.834V378.754H347.433V374.112C346.073 375.817 344.387 377.095 342.372 377.947C340.4 378.798 338.208 379.225 335.798 379.225C332.423 379.225 329.377 378.462 326.661 376.937C323.987 375.413 321.884 373.26 320.351 370.479C318.817 367.653 318.051 364.424 318.051 360.791C318.051 357.158 318.817 353.951 320.351 351.17C321.884 348.388 323.987 346.236 326.661 344.711C329.377 343.187 332.423 342.424 335.798 342.424C338.12 342.424 340.246 342.827 342.174 343.635C344.101 344.442 345.745 345.653 347.104 347.268V328.834H355.321ZM336.784 372.026C338.756 372.026 340.531 371.578 342.109 370.681C343.686 369.739 344.935 368.416 345.855 366.711C346.776 365.006 347.236 363.034 347.236 360.791C347.236 358.547 346.776 356.575 345.855 354.87C344.935 353.165 343.686 351.866 342.109 350.968C340.531 350.026 338.756 349.555 336.784 349.555C334.812 349.555 333.038 350.026 331.46 350.968C329.882 351.866 328.633 353.165 327.713 354.87C326.793 356.575 326.333 358.547 326.333 360.791C326.333 363.034 326.793 365.006 327.713 366.711C328.633 368.416 329.882 369.739 331.46 370.681C333.038 371.578 334.812 372.026 336.784 372.026ZM400.447 328.834V378.754H392.559V374.112C391.201 375.817 389.514 377.095 387.497 377.947C385.525 378.798 383.336 379.225 380.924 379.225C377.551 379.225 374.505 378.462 371.787 376.937C369.115 375.413 367.011 373.26 365.477 370.479C363.944 367.653 363.176 364.424 363.176 360.791C363.176 357.158 363.944 353.951 365.477 351.17C367.011 348.388 369.115 346.236 371.787 344.711C374.505 343.187 377.551 342.424 380.924 342.424C383.247 342.424 385.373 342.827 387.3 343.635C389.229 344.442 390.872 345.653 392.23 347.268V328.834H400.447ZM381.91 372.026C383.882 372.026 385.657 371.578 387.234 370.681C388.812 369.739 390.061 368.416 390.981 366.711C391.901 365.006 392.361 363.034 392.361 360.791C392.361 358.547 391.901 356.575 390.981 354.87C390.061 353.165 388.812 351.866 387.234 350.968C385.657 350.026 383.882 349.555 381.91 349.555C379.938 349.555 378.163 350.026 376.586 350.968C375.008 351.866 373.759 353.165 372.839 354.87C371.919 356.575 371.458 358.547 371.458 360.791C371.458 363.034 371.919 365.006 372.839 366.711C373.759 368.416 375.008 369.739 376.586 370.681C378.163 371.578 379.938 372.026 381.91 372.026ZM444.062 342.827L427.629 381.647C426.095 385.549 424.234 388.284 422.042 389.855C419.85 391.469 417.2 392.277 414.088 392.277C412.336 392.277 410.604 391.985 408.895 391.402C407.186 390.82 405.783 390.012 404.688 388.98L407.975 382.791C408.764 383.554 409.684 384.159 410.736 384.607C411.831 385.055 412.928 385.28 414.023 385.28C415.469 385.28 416.652 384.899 417.572 384.136C418.535 383.373 419.413 382.095 420.201 380.301L420.793 378.888L405.477 342.827H414.023L425.066 369.402L436.174 342.827H444.062Z" fill="#041562"/>
</svg>
